<svg height="2670" width="720" xmlns="http://www.w3.org/2000/svg">
<rect height="2670" fill="#555" width="720"></rect>
<text fill="#7f7" font-family="Courier New" font-size="12" xml:space="preserve">
<tspan x="10" y="26">36 megabytes installed</tspan>
<tspan x="10" y="42"></tspan>
<tspan x="10" y="58">node_modules</tspan>
<tspan x="10" y="74">├── UNMET PEER DEPENDENCY grunt@&gt;=0.4.0</tspan>
<tspan x="10" y="90">└─┬ grunt-webfont@1.6.0 </tspan>
<tspan x="10" y="106">  ├── async@1.5.2 </tspan>
<tspan x="10" y="122">  ├─┬ chalk@1.1.3 </tspan>
<tspan x="10" y="138">  │ ├── ansi-styles@2.2.1 </tspan>
<tspan x="10" y="154">  │ ├── escape-string-regexp@1.0.5 </tspan>
<tspan x="10" y="170">  │ ├─┬ has-ansi@2.0.0 </tspan>
<tspan x="10" y="186">  │ │ └── ansi-regex@2.1.1 </tspan>
<tspan x="10" y="202">  │ ├── strip-ansi@3.0.1 </tspan>
<tspan x="10" y="218">  │ └── supports-color@2.0.0 </tspan>
<tspan x="10" y="234">  ├─┬ glob@7.0.6 </tspan>
<tspan x="10" y="250">  │ ├── fs.realpath@1.0.0 </tspan>
<tspan x="10" y="266">  │ ├─┬ inflight@1.0.6 </tspan>
<tspan x="10" y="282">  │ │ └── wrappy@1.0.2 </tspan>
<tspan x="10" y="298">  │ ├── inherits@2.0.3 </tspan>
<tspan x="10" y="314">  │ ├─┬ minimatch@3.0.3 </tspan>
<tspan x="10" y="330">  │ │ └─┬ brace-expansion@1.1.7 </tspan>
<tspan x="10" y="346">  │ │   ├── balanced-match@0.4.2 </tspan>
<tspan x="10" y="362">  │ │   └── concat-map@0.0.1 </tspan>
<tspan x="10" y="378">  │ ├── once@1.4.0 </tspan>
<tspan x="10" y="394">  │ └── path-is-absolute@1.0.1 </tspan>
<tspan x="10" y="410">  ├── lodash@4.3.0 </tspan>
<tspan x="10" y="426">  ├── memorystream@0.3.1 </tspan>
<tspan x="10" y="442">  ├─┬ mkdirp@0.5.1 </tspan>
<tspan x="10" y="458">  │ └── minimist@0.0.8 </tspan>
<tspan x="10" y="474">  ├─┬ svg2ttf@2.1.1 </tspan>
<tspan x="10" y="490">  │ ├─┬ argparse@1.0.9 </tspan>
<tspan x="10" y="506">  │ │ └── sprintf-js@1.0.3 </tspan>
<tspan x="10" y="522">  │ ├── cubic2quad@1.1.0 </tspan>
<tspan x="10" y="538">  │ ├── lodash@3.10.1 </tspan>
<tspan x="10" y="554">  │ ├── microbuffer@1.0.0 </tspan>
<tspan x="10" y="570">  │ ├── svgpath@2.2.1 </tspan>
<tspan x="10" y="586">  │ └── xmldom@0.1.27 </tspan>
<tspan x="10" y="602">  ├─┬ svgicons2svgfont@1.1.0 </tspan>
<tspan x="10" y="618">  │ ├─┬ readable-stream@1.1.14 </tspan>
<tspan x="10" y="634">  │ │ ├── core-util-is@1.0.2 </tspan>
<tspan x="10" y="650">  │ │ ├── isarray@0.0.1 </tspan>
<tspan x="10" y="666">  │ │ └── string_decoder@0.10.31 </tspan>
<tspan x="10" y="682">  │ ├── sax@0.6.1 </tspan>
<tspan x="10" y="698">  │ └─┬ svg-pathdata@1.0.0 </tspan>
<tspan x="10" y="714">  │   └── readable-stream@1.0.34 </tspan>
<tspan x="10" y="730">  ├─┬ svgo@0.6.6 </tspan>
<tspan x="10" y="746">  │ ├─┬ coa@1.0.1 </tspan>
<tspan x="10" y="762">  │ │ └── q@1.5.0 </tspan>
<tspan x="10" y="778">  │ ├── colors@1.1.2 </tspan>
<tspan x="10" y="794">  │ ├─┬ csso@2.0.0 </tspan>
<tspan x="10" y="810">  │ │ ├── clap@1.1.3 </tspan>
<tspan x="10" y="826">  │ │ └── source-map@0.5.6 </tspan>
<tspan x="10" y="842">  │ ├─┬ js-yaml@3.6.1 </tspan>
<tspan x="10" y="858">  │ │ └── esprima@2.7.3 </tspan>
<tspan x="10" y="874">  │ ├── sax@1.2.2 </tspan>
<tspan x="10" y="890">  │ └── whet.extend@0.9.9 </tspan>
<tspan x="10" y="906">  ├─┬ temp@0.8.3 </tspan>
<tspan x="10" y="922">  │ ├── os-tmpdir@1.0.2 </tspan>
<tspan x="10" y="938">  │ └── rimraf@2.2.8 </tspan>
<tspan x="10" y="954">  ├─┬ ttf2eot@1.3.0 </tspan>
<tspan x="10" y="970">  │ └─┬ argparse@0.1.16 </tspan>
<tspan x="10" y="986">  │   ├── underscore@1.7.0 </tspan>
<tspan x="10" y="1002">  │   └── underscore.string@2.4.0 </tspan>
<tspan x="10" y="1018">  ├─┬ ttf2woff@1.3.0 </tspan>
<tspan x="10" y="1034">  │ ├─┬ argparse@0.1.16 </tspan>
<tspan x="10" y="1050">  │ │ └── underscore.string@2.4.0 </tspan>
<tspan x="10" y="1066">  │ └── pako@0.2.9 </tspan>
<tspan x="10" y="1082">  ├─┬ ttf2woff2@2.0.3 </tspan>
<tspan x="10" y="1098">  │ ├── bindings@1.2.1 </tspan>
<tspan x="10" y="1114">  │ ├─┬ bufferstreams@1.1.1 </tspan>
<tspan x="10" y="1130">  │ │ └─┬ readable-stream@2.2.9 </tspan>
<tspan x="10" y="1146">  │ │   ├── buffer-shims@1.0.0 </tspan>
<tspan x="10" y="1162">  │ │   ├── isarray@1.0.0 </tspan>
<tspan x="10" y="1178">  │ │   ├── process-nextick-args@1.0.7 </tspan>
<tspan x="10" y="1194">  │ │   ├── string_decoder@1.0.0 </tspan>
<tspan x="10" y="1210">  │ │   └── util-deprecate@1.0.2 </tspan>
<tspan x="10" y="1226">  │ ├── nan@2.6.2 </tspan>
<tspan x="10" y="1242">  │ └─┬ node-gyp@3.6.0 </tspan>
<tspan x="10" y="1258">  │   ├── fstream@1.0.11 </tspan>
<tspan x="10" y="1274">  │   ├── graceful-fs@4.1.11 </tspan>
<tspan x="10" y="1290">  │   ├─┬ nopt@3.0.6 </tspan>
<tspan x="10" y="1306">  │   │ └── abbrev@1.1.0 </tspan>
<tspan x="10" y="1322">  │   ├─┬ npmlog@4.0.2 </tspan>
<tspan x="10" y="1338">  │   │ ├─┬ are-we-there-yet@1.1.2 </tspan>
<tspan x="10" y="1354">  │   │ │ └── delegates@1.0.0 </tspan>
<tspan x="10" y="1370">  │   │ ├── console-control-strings@1.1.0 </tspan>
<tspan x="10" y="1386">  │   │ ├─┬ gauge@2.7.3 </tspan>
<tspan x="10" y="1402">  │   │ │ ├── aproba@1.1.1 </tspan>
<tspan x="10" y="1418">  │   │ │ ├── has-unicode@2.0.1 </tspan>
<tspan x="10" y="1434">  │   │ │ ├── object-assign@4.1.1 </tspan>
<tspan x="10" y="1450">  │   │ │ ├── signal-exit@3.0.2 </tspan>
<tspan x="10" y="1466">  │   │ │ ├─┬ string-width@1.0.2 </tspan>
<tspan x="10" y="1482">  │   │ │ │ ├── code-point-at@1.1.0 </tspan>
<tspan x="10" y="1498">  │   │ │ │ └─┬ is-fullwidth-code-point@1.0.0 </tspan>
<tspan x="10" y="1514">  │   │ │ │   └── number-is-nan@1.0.1 </tspan>
<tspan x="10" y="1530">  │   │ │ └── wide-align@1.1.0 </tspan>
<tspan x="10" y="1546">  │   │ └── set-blocking@2.0.0 </tspan>
<tspan x="10" y="1562">  │   ├─┬ osenv@0.1.4 </tspan>
<tspan x="10" y="1578">  │   │ └── os-homedir@1.0.2 </tspan>
<tspan x="10" y="1594">  │   ├─┬ request@2.81.0 </tspan>
<tspan x="10" y="1610">  │   │ ├── aws-sign2@0.6.0 </tspan>
<tspan x="10" y="1626">  │   │ ├── aws4@1.6.0 </tspan>
<tspan x="10" y="1642">  │   │ ├── caseless@0.12.0 </tspan>
<tspan x="10" y="1658">  │   │ ├─┬ combined-stream@1.0.5 </tspan>
<tspan x="10" y="1674">  │   │ │ └── delayed-stream@1.0.0 </tspan>
<tspan x="10" y="1690">  │   │ ├── extend@3.0.0 </tspan>
<tspan x="10" y="1706">  │   │ ├── forever-agent@0.6.1 </tspan>
<tspan x="10" y="1722">  │   │ ├─┬ form-data@2.1.4 </tspan>
<tspan x="10" y="1738">  │   │ │ └── asynckit@0.4.0 </tspan>
<tspan x="10" y="1754">  │   │ ├─┬ har-validator@4.2.1 </tspan>
<tspan x="10" y="1770">  │   │ │ ├─┬ ajv@4.11.7 </tspan>
<tspan x="10" y="1786">  │   │ │ │ ├── co@4.6.0 </tspan>
<tspan x="10" y="1802">  │   │ │ │ └─┬ json-stable-stringify@1.0.1 </tspan>
<tspan x="10" y="1818">  │   │ │ │   └── jsonify@0.0.0 </tspan>
<tspan x="10" y="1834">  │   │ │ └── har-schema@1.0.5 </tspan>
<tspan x="10" y="1850">  │   │ ├─┬ hawk@3.1.3 </tspan>
<tspan x="10" y="1866">  │   │ │ ├── boom@2.10.1 </tspan>
<tspan x="10" y="1882">  │   │ │ ├── cryptiles@2.0.5 </tspan>
<tspan x="10" y="1898">  │   │ │ ├── hoek@2.16.3 </tspan>
<tspan x="10" y="1914">  │   │ │ └── sntp@1.0.9 </tspan>
<tspan x="10" y="1930">  │   │ ├─┬ http-signature@1.1.1 </tspan>
<tspan x="10" y="1946">  │   │ │ ├── assert-plus@0.2.0 </tspan>
<tspan x="10" y="1962">  │   │ │ ├─┬ jsprim@1.4.0 </tspan>
<tspan x="10" y="1978">  │   │ │ │ ├── assert-plus@1.0.0 </tspan>
<tspan x="10" y="1994">  │   │ │ │ ├── extsprintf@1.0.2 </tspan>
<tspan x="10" y="2010">  │   │ │ │ ├── json-schema@0.2.3 </tspan>
<tspan x="10" y="2026">  │   │ │ │ └── verror@1.3.6 </tspan>
<tspan x="10" y="2042">  │   │ │ └─┬ sshpk@1.13.0 </tspan>
<tspan x="10" y="2058">  │   │ │   ├── asn1@0.2.3 </tspan>
<tspan x="10" y="2074">  │   │ │   ├── assert-plus@1.0.0 </tspan>
<tspan x="10" y="2090">  │   │ │   ├── bcrypt-pbkdf@1.0.1 </tspan>
<tspan x="10" y="2106">  │   │ │   ├─┬ dashdash@1.14.1 </tspan>
<tspan x="10" y="2122">  │   │ │   │ └── assert-plus@1.0.0 </tspan>
<tspan x="10" y="2138">  │   │ │   ├── ecc-jsbn@0.1.1 </tspan>
<tspan x="10" y="2154">  │   │ │   ├─┬ getpass@0.1.6 </tspan>
<tspan x="10" y="2170">  │   │ │   │ └── assert-plus@1.0.0 </tspan>
<tspan x="10" y="2186">  │   │ │   ├── jodid25519@1.0.2 </tspan>
<tspan x="10" y="2202">  │   │ │   ├── jsbn@0.1.1 </tspan>
<tspan x="10" y="2218">  │   │ │   └── tweetnacl@0.14.5 </tspan>
<tspan x="10" y="2234">  │   │ ├── is-typedarray@1.0.0 </tspan>
<tspan x="10" y="2250">  │   │ ├── json-stringify-safe@5.0.1 </tspan>
<tspan x="10" y="2266">  │   │ ├─┬ mime-types@2.1.15 </tspan>
<tspan x="10" y="2282">  │   │ │ └── mime-db@1.27.0 </tspan>
<tspan x="10" y="2298">  │   │ ├── oauth-sign@0.8.2 </tspan>
<tspan x="10" y="2314">  │   │ ├── performance-now@0.2.0 </tspan>
<tspan x="10" y="2330">  │   │ ├── qs@6.4.0 </tspan>
<tspan x="10" y="2346">  │   │ ├── safe-buffer@5.0.1 </tspan>
<tspan x="10" y="2362">  │   │ ├── stringstream@0.0.5 </tspan>
<tspan x="10" y="2378">  │   │ ├─┬ tough-cookie@2.3.2 </tspan>
<tspan x="10" y="2394">  │   │ │ └── punycode@1.4.1 </tspan>
<tspan x="10" y="2410">  │   │ ├── tunnel-agent@0.6.0 </tspan>
<tspan x="10" y="2426">  │   │ └── uuid@3.0.1 </tspan>
<tspan x="10" y="2442">  │   ├── semver@5.3.0 </tspan>
<tspan x="10" y="2458">  │   ├─┬ tar@2.2.1 </tspan>
<tspan x="10" y="2474">  │   │ └── block-stream@0.0.9 </tspan>
<tspan x="10" y="2490">  │   └─┬ which@1.2.14 </tspan>
<tspan x="10" y="2506">  │     └── isexe@2.0.0 </tspan>
<tspan x="10" y="2522">  ├── underscore.string@3.2.3 </tspan>
<tspan x="10" y="2538">  └─┬ winston@2.1.1 </tspan>
<tspan x="10" y="2554">    ├── async@1.0.0 </tspan>
<tspan x="10" y="2570">    ├── colors@1.0.3 </tspan>
<tspan x="10" y="2586">    ├── cycle@1.0.3 </tspan>
<tspan x="10" y="2602">    ├── eyes@0.1.8 </tspan>
<tspan x="10" y="2618">    ├── isstream@0.1.2 </tspan>
<tspan x="10" y="2634">    ├── pkginfo@0.3.1 </tspan>
<tspan x="10" y="2650">    └── stack-trace@0.0.9</tspan>
</text>
</svg>
